<?xml version="1.0" encoding="UTF-8"?>
<svg width="84px" height="22px" viewBox="0 0 84 22" version="1.1" xmlns="http://www.w3.org/2000/svg" xmlns:xlink="http://www.w3.org/1999/xlink">
    <title>Utilities/Logos/AIP/Default_AccLogo</title>
    <g id="Page-1" stroke="none" stroke-width="1" fill="none" fill-rule="evenodd">
        <g id="Group" fill-rule="nonzero">
            <g id="Acc_Logo_Black_Purple_RGB">
                <polygon id="Path" fill="#A100FF" points="48 5.64705882 52.0869565 4 48 2.30588235 48 0 55 3.05882353 55 4.94117647 48 8"></polygon>
                <path d="M3.1872705,22 C1.43941248,22 0,21.0441767 0,18.9076305 L0,18.7951807 C0,16.2088353 2.05630355,15.3092369 4.5752754,15.3092369 L5.75764994,15.3092369 L5.75764994,14.8032129 C5.75764994,13.7349398 5.34638923,13.1164659 4.31823745,13.1164659 C3.39290086,13.1164659 2.93023256,13.6787149 2.87882497,14.4658635 L0.308445532,14.4658635 C0.514075887,12.1044177 2.21052632,10.9799197 4.47246022,10.9799197 C6.78580171,10.9799197 8.48225214,12.0481928 8.48225214,14.6907631 L8.48225214,21.7751004 L5.86046512,21.7751004 L5.86046512,20.5381526 C5.34638923,21.3253012 4.47246022,22 3.1872705,22 Z M5.75764994,18.2891566 L5.75764994,17.2771084 L4.67809058,17.2771084 C3.34149327,17.2771084 2.67319461,17.6706827 2.67319461,18.626506 L2.67319461,18.7389558 C2.67319461,19.4698795 3.08445532,19.9759036 4.00979192,19.9759036 C4.93512852,19.9196787 5.75764994,19.3574297 5.75764994,18.2891566 Z M14.5997552,22 C11.9265606,22 9.97307222,20.2008032 9.97307222,16.6024096 L9.97307222,16.4337349 C9.97307222,12.8353414 12.0293758,10.9236948 14.5997552,10.9236948 C16.8102815,10.9236948 18.6095471,12.1606426 18.8151775,14.9156627 L16.244798,14.9156627 C16.0905753,13.9036145 15.5764994,13.2289157 14.6511628,13.2289157 C13.5201958,13.2289157 12.6976744,14.2409639 12.6976744,16.3212851 L12.6976744,16.6586345 C12.6976744,18.7951807 13.4173807,19.751004 14.6511628,19.751004 C15.5764994,19.751004 16.244798,19.0200803 16.3990208,17.8393574 L18.8665851,17.8393574 C18.7123623,20.313253 17.2215422,22 14.5997552,22 Z M24.6756426,22 C22.002448,22 20.0489596,20.2008032 20.0489596,16.6024096 L20.0489596,16.4337349 C20.0489596,12.8353414 22.1052632,10.9236948 24.6756426,10.9236948 C26.8861689,10.9236948 28.6854345,12.1606426 28.8910649,14.9156627 L26.3206854,14.9156627 C26.1664627,13.9036145 25.6523868,13.2289157 24.7270502,13.2289157 C23.5960832,13.2289157 22.7735618,14.2409639 22.7735618,16.3212851 L22.7735618,16.6586345 C22.7735618,18.7951807 23.4932681,19.751004 24.7270502,19.751004 C25.6523868,19.751004 26.3206854,19.0200803 26.4749082,17.8393574 L28.9424725,17.8393574 C28.7882497,20.313253 27.2974296,22 24.6756426,22 Z M34.8029376,22 C32.0269278,22 30.124847,20.2008032 30.124847,16.6586345 L30.124847,16.4337349 C30.124847,12.8915663 32.129743,10.9236948 34.75153,10.9236948 C37.1676867,10.9236948 39.1725826,12.3855422 39.1725826,15.9277108 L39.1725826,17.2208835 L32.8494492,17.2208835 C32.9522644,19.1325301 33.7233782,19.8634538 34.8543452,19.8634538 C35.8824969,19.8634538 36.4479804,19.2449799 36.6536108,18.5140562 L39.1725826,18.5140562 C38.8641371,20.4819277 37.3219094,22 34.8029376,22 Z M32.9008568,15.253012 L36.499388,15.253012 C36.4479804,13.6787149 35.7796818,13.0040161 34.7001224,13.0040161 C33.877601,13.060241 33.1064871,13.5662651 32.9008568,15.253012 Z M40.8176255,11.2048193 L43.5422277,11.2048193 L43.5422277,12.7791165 C44.004896,11.7670683 44.9816401,10.9799197 46.4724602,10.9799197 C48.2203182,10.9799197 49.4026928,12.1606426 49.4026928,14.6907631 L49.4026928,21.7751004 L46.6780906,21.7751004 L46.6780906,15.1405622 C46.6780906,13.9036145 46.2154223,13.3413655 45.2386781,13.3413655 C44.3133415,13.3413655 43.5422277,13.9598394 43.5422277,15.3092369 L43.5422277,21.7751004 L40.8176255,21.7751004 L40.8176255,11.2048193 L40.8176255,11.2048193 Z M54.3892289,8 L54.3892289,11.2048193 L56.2399021,11.2048193 L56.2399021,13.3975904 L54.3892289,13.3975904 L54.3892289,18.4016064 C54.3892289,19.188755 54.6976744,19.5823293 55.3659731,19.5823293 C55.7772338,19.5823293 56.0342717,19.5261044 56.2913097,19.4136546 L56.2913097,21.7188755 C55.9828641,21.8313253 55.4173807,21.9437751 54.749082,21.9437751 C52.6413709,21.9437751 51.6646267,20.875502 51.6646267,18.7389558 L51.6646267,13.3975904 L50.5336597,13.3975904 L50.5336597,11.2048193 L51.6646267,11.2048193 L51.6646267,9.23694779 L54.3892289,8 Z M66.4186047,21.7751004 L63.74541,21.7751004 L63.74541,20.2008032 C63.2827417,21.2128514 62.3574051,22 60.9179927,22 C59.1701346,22 57.8849449,20.8192771 57.8849449,18.3453815 L57.8849449,11.2048193 L60.6095471,11.2048193 L60.6095471,17.9518072 C60.6095471,19.188755 61.0722154,19.751004 61.997552,19.751004 C62.9228886,19.751004 63.6940024,19.0763052 63.6940024,17.7831325 L63.6940024,11.2048193 L66.4186047,11.2048193 L66.4186047,21.7751004 Z M68.4235006,11.2048193 L71.1481028,11.2048193 L71.1481028,13.1726908 C71.7135863,11.7670683 72.6389229,11.0923695 74.0783354,11.0923695 L74.0783354,14.0160643 C72.2276622,14.0160643 71.1481028,14.6345382 71.1481028,16.37751 L71.1481028,21.8313253 L68.4235006,21.8313253 L68.4235006,11.2048193 Z M79.5789474,22 C76.8029376,22 74.9008568,20.2008032 74.9008568,16.6586345 L74.9008568,16.4337349 C74.9008568,12.8915663 76.9057528,10.9236948 79.5275398,10.9236948 C81.9436965,10.9236948 83.9485924,12.3855422 83.9485924,15.9277108 L83.9485924,17.2208835 L77.6768666,17.2208835 C77.7796818,19.1325301 78.5507956,19.8634538 79.6817625,19.8634538 C80.7099143,19.8634538 81.2753978,19.2449799 81.4810282,18.5140562 L84,18.5140562 C83.5887393,20.4819277 82.0979192,22 79.5789474,22 Z M77.625459,15.253012 L81.2753978,15.253012 C81.2239902,13.6787149 80.5556916,13.0040161 79.4761322,13.0040161 C78.6536108,13.060241 77.8824969,13.5662651 77.625459,15.253012 Z" id="Shape" fill="#000000"></path>
            </g>
        </g>
    </g>
</svg>